<!-- Generated by IcoMoon.io -->
<svg version="1.1" xmlns="http://www.w3.org/2000/svg" width="113" height="32" viewBox="0 0 113 32">
<title>Group-6</title>
<path fill="#006bd5" d="M106.388 15.997l-11.206-11.206c-0.879-0.879-0.882-2.302 0.007-3.192 0.883-0.883 2.308-0.892 3.192-0.007l12.813 12.813c0.439 0.438 0.659 1.012 0.66 1.587 0 0.581-0.219 1.156-0.66 1.597l-12.813 12.813c-0.879 0.879-2.302 0.882-3.192-0.007-0.883-0.884-0.892-2.308-0.007-3.192l11.206-11.206z"></path>
<path fill="#006bd5" opacity="0.9" d="M87.535 15.997l-11.206-11.206c-0.879-0.879-0.882-2.302 0.007-3.192 0.883-0.883 2.308-0.892 3.192-0.007l12.813 12.813c0.439 0.438 0.659 1.012 0.66 1.587 0 0.581-0.219 1.156-0.66 1.597l-12.813 12.813c-0.879 0.879-2.302 0.882-3.192-0.007-0.883-0.884-0.892-2.308-0.007-3.192l11.206-11.206z"></path>
<path fill="#006bd5" opacity="0.7" d="M68.681 15.997l-11.206-11.206c-0.879-0.879-0.882-2.302 0.007-3.192 0.883-0.883 2.308-0.892 3.192-0.007l12.813 12.813c0.439 0.438 0.659 1.012 0.66 1.587 0 0.581-0.219 1.156-0.66 1.597l-12.813 12.813c-0.879 0.879-2.302 0.882-3.192-0.007-0.883-0.884-0.892-2.308-0.007-3.192l11.206-11.206z"></path>
<path fill="#006bd5" opacity="0.6" d="M49.828 15.997l-11.206-11.206c-0.879-0.879-0.882-2.302 0.007-3.192 0.883-0.883 2.308-0.892 3.192-0.007l12.813 12.813c0.438 0.438 0.659 1.012 0.66 1.587 0 0.581-0.219 1.156-0.66 1.597l-12.813 12.813c-0.879 0.879-2.302 0.882-3.192-0.007-0.883-0.884-0.892-2.308-0.007-3.192l11.206-11.206z"></path>
<path fill="#006bd5" opacity="0.4" d="M30.975 15.997l-11.206-11.206c-0.879-0.879-0.882-2.302 0.007-3.192 0.884-0.883 2.308-0.892 3.192-0.007l12.813 12.813c0.438 0.438 0.659 1.012 0.66 1.587 0 0.581-0.219 1.156-0.66 1.597l-12.813 12.813c-0.879 0.879-2.302 0.882-3.192-0.007-0.884-0.884-0.892-2.308-0.007-3.192l11.206-11.206z"></path>
<path fill="#006bd5" opacity="0.3" d="M12.122 15.997l-11.206-11.206c-0.879-0.879-0.882-2.302 0.007-3.192 0.883-0.883 2.308-0.892 3.192-0.007l12.813 12.813c0.439 0.438 0.659 1.012 0.66 1.587 0 0.581-0.219 1.156-0.66 1.597l-12.813 12.813c-0.879 0.879-2.302 0.882-3.192-0.007-0.883-0.884-0.892-2.308-0.007-3.192l11.206-11.206z"></path>
</svg>
