<!-- Generated by IcoMoon.io -->
<svg version="1.1" xmlns="http://www.w3.org/2000/svg" width="23" height="32" viewBox="0 0 23 32">
<title>boy</title>
<path fill="#fdcc9b" d="M9.301 23.702h4.751v5.253h-4.751v-5.253z"></path>
<path fill="#fcbc85" d="M9.301 24.321c0 0 1.998 1.256 4.751 0.965v-1.584h-4.751v0.619z"></path>
<path fill="#fcbc85" d="M4.769 15.556c0 1.442-1.038 2.611-2.318 2.611s-2.318-1.169-2.318-2.611c0-1.442 1.038-2.611 2.318-2.611s2.318 1.169 2.318 2.611z"></path>
<path fill="#fcbc85" d="M23.22 15.556c0 1.442-1.038 2.611-2.318 2.611s-2.318-1.169-2.318-2.611c0-1.442 1.038-2.611 2.318-2.611s2.318 1.169 2.318 2.611z"></path>
<path fill="#fdcc9b" d="M20.893 10.569c0-3.846-2.85-6.661-9.216-6.661s-9.216 2.814-9.216 6.661c0 3.846-0.665 13.978 9.216 13.978s9.216-10.132 9.216-13.978z"></path>
<path fill="#3b2519" d="M8.185 14.931c0 0.596-0.447 1.079-0.998 1.079s-0.998-0.483-0.998-1.079c0-0.596 0.447-1.079 0.998-1.079s0.998 0.483 0.998 1.079z"></path>
<path fill="#fff" d="M7.722 14.455c0 0.536-0.434 0.97-0.97 0.97s-0.97-0.434-0.97-0.97c0-0.536 0.434-0.97 0.97-0.97s0.97 0.434 0.97 0.97z"></path>
<path fill="#51362a" d="M5.591 12.257c0.472 0.233 1.229-0.791 2.963 0.1 0.316 0.162 0.505-1.39-1.354-1.39-1.609 0-1.894 1.149-1.609 1.29z"></path>
<path fill="#3b2519" d="M17.286 14.931c0 0.596-0.447 1.079-0.998 1.079s-0.998-0.483-0.998-1.079c0-0.596 0.447-1.079 0.998-1.079s0.998 0.483 0.998 1.079z"></path>
<path fill="#fff" d="M16.823 14.455c0 0.536-0.434 0.97-0.97 0.97s-0.97-0.434-0.97-0.97c0-0.536 0.434-0.97 0.97-0.97s0.97 0.434 0.97 0.97z"></path>
<path fill="#51362a" d="M17.761 12.257c-0.472 0.233-1.229-0.791-2.963 0.1-0.316 0.162-0.505-1.39 1.354-1.39 1.609 0 1.894 1.149 1.609 1.29z"></path>
<path fill="#fcbc85" d="M11.676 18.726c-0.986 0-1.58-0.727-1.58-0.375s0.285 1.020 1.58 1.020 1.58-0.668 1.58-1.020c0-0.352-0.594 0.375-1.58 0.375z"></path>
<path fill="#fcbc85" d="M11.676 21.96c-0.341 0-0.546-0.251-0.546-0.13s0.099 0.353 0.546 0.353c0.448 0 0.546-0.231 0.546-0.353s-0.205 0.13-0.546 0.13z"></path>
<path fill="#f7945e" d="M11.676 20.477c-1.563 0-2.504-1.405-2.504-1.049s0.452 1.757 2.504 1.757c2.052 0 2.504-1.401 2.504-1.757s-0.941 1.049-2.504 1.049z"></path>
<path fill="#1991eb" d="M11.636 25.212v6.788h-11.636c0-2.748 6.129-6.788 11.636-6.788z"></path>
<path fill="#1991eb" d="M11.636 25.212v6.788h11.636c0-2.748-6.129-6.788-11.636-6.788z"></path>
<path fill="#747474" d="M12.538 25.212c-1.263 0-2.557 0.151-3.811 0.408 0.008 0.009 1.391 1.532 3.811 1.532 2.241 0 3.731-1.303 3.947-1.504-1.296-0.275-2.638-0.435-3.947-0.435z"></path>
<path fill="#fdcc9b" d="M9.697 25.519c0 0 0.567 0.663 1.939 0.663s1.939-0.663 1.939-0.663c0 0-2.012-0.69-3.879 0z"></path>
<path fill="#51362a" d="M19.052 3.025c0 0-3.437-4.274-10.581-2.662s-7.679 5.815-7.464 9.905c0.215 4.090 0.788 6.489 1.465 6.193s0.325-2.996 0.397-3.619 0.716-3.44 5.061-3.020c4.345 0.42 8.006-1.121 8.006-1.121s1.474 1.823 2.444 2.172c1.938 0.698 1.303 5.35 2.062 5.35s4.483-10.744-1.389-13.196z"></path>
</svg>
