<!-- Generated by IcoMoon.io -->
<svg version="1.1" xmlns="http://www.w3.org/2000/svg" width="32" height="32" viewBox="0 0 32 32">
<title>Oval-Copy</title>
<path fill="#7ed321" d="M16 32c-8.837 0-16-7.163-16-16s7.163-16 16-16c8.837 0 16 7.163 16 16s-7.163 16-16 16zM21.406 11.669c-0.165-0.16-0.366-0.24-0.602-0.24s-0.437 0.080-0.602 0.24l-5.804 5.634-2.601-2.53c-0.165-0.16-0.366-0.24-0.602-0.24s-0.437 0.080-0.602 0.24l-1.203 1.166c-0.165 0.16-0.248 0.354-0.248 0.583s0.083 0.423 0.248 0.583l4.406 4.271c0.165 0.16 0.366 0.24 0.602 0.24s0.436-0.080 0.602-0.24l7.609-7.375c0.165-0.16 0.248-0.354 0.248-0.583s-0.083-0.423-0.248-0.583l-1.203-1.166z"></path>
</svg>
