<!-- Generated by IcoMoon.io -->
<svg version="1.1" xmlns="http://www.w3.org/2000/svg" width="31" height="32" viewBox="0 0 31 32">
<title>loading</title>
<path fill="#006bd5" stroke="#006bd5" stroke-width="0.7273" stroke-miterlimit="4" stroke-linecap="butt" stroke-linejoin="miter" d="M15.9 1.455c-0.723 0-1.31 0.587-1.31 1.31v5.24c0 0.723 0.586 1.31 1.31 1.31s1.31-0.587 1.31-1.31v-5.24c0-0.723-0.587-1.31-1.31-1.31z"></path>
<path fill="#006bd5" opacity="0.6" stroke="#006bd5" stroke-width="0.7273" stroke-miterlimit="4" stroke-linecap="butt" stroke-linejoin="miter" d="M15.9 22.413c-0.723 0-1.31 0.587-1.31 1.31v5.24c0 0.723 0.587 1.31 1.31 1.31s1.31-0.587 1.31-1.31v-5.24c0-0.723-0.587-1.31-1.31-1.31z"></path>
<path fill="#006bd5" stroke="#006bd5" stroke-width="0.7273" stroke-miterlimit="4" stroke-linecap="butt" stroke-linejoin="miter" d="M11.268 9.38l-3.705-3.705c-0.511-0.512-1.341-0.512-1.852 0s-0.512 1.341 0 1.852l3.705 3.705c0.256 0.256 0.591 0.384 0.926 0.384s0.671-0.128 0.926-0.384c0.512-0.512 0.512-1.341 0-1.852z"></path>
<path fill="#006bd5" opacity="0.2" stroke="#006bd5" stroke-width="0.7273" stroke-miterlimit="4" stroke-linecap="butt" stroke-linejoin="miter" d="M27.689 14.554h-2.62c-0.723 0-1.31 0.587-1.31 1.31s0.587 1.31 1.31 1.31h2.62c0.723 0 1.31-0.587 1.31-1.31s-0.587-1.31-1.31-1.31z"></path>
<path fill="#006bd5" opacity="0.3" stroke="#006bd5" stroke-width="0.7273" stroke-miterlimit="4" stroke-linecap="butt" stroke-linejoin="miter" d="M22.383 20.495c-0.511-0.512-1.341-0.511-1.852 0s-0.511 1.341 0 1.852l3.705 3.705c0.256 0.256 0.591 0.384 0.926 0.384s0.671-0.128 0.926-0.384c0.512-0.512 0.512-1.341 0-1.852l-3.705-3.705z"></path>
<path fill="#006bd5" opacity="0.8" stroke="#006bd5" stroke-width="0.7273" stroke-miterlimit="4" stroke-linecap="butt" stroke-linejoin="miter" d="M9.35 15.864c0-0.723-0.587-1.31-1.31-1.31h-5.24c-0.723 0-1.31 0.587-1.31 1.31s0.586 1.31 1.31 1.31h5.24c0.723 0 1.31-0.587 1.31-1.31z"></path>
<path fill="#006bd5" opacity="0.8" stroke="#006bd5" stroke-width="0.7273" stroke-miterlimit="4" stroke-linecap="butt" stroke-linejoin="miter" d="M11.268 20.495c-0.511-0.512-1.341-0.512-1.852 0l-3.705 3.705c-0.512 0.511-0.512 1.341 0 1.852 0.256 0.256 0.591 0.384 0.926 0.384s0.671-0.128 0.926-0.384l3.705-3.705c0.512-0.511 0.512-1.341 0-1.852z"></path>
</svg>
