<!-- Generated by IcoMoon.io -->
<svg version="1.1" xmlns="http://www.w3.org/2000/svg" width="38" height="32" viewBox="0 0 38 32">
<title>Group</title>
<path fill="#fff" d="M15.525 28.607c-0.049-0.129-0.065-0.238-0.049-0.327s-0.040-0.161-0.17-0.217-0.194-0.101-0.194-0.133c0-0.032-0.093-0.056-0.279-0.072s-0.279-0.024-0.279-0.024h-7.565c-1.067 0-1.98-0.378-2.74-1.136s-1.14-1.667-1.14-2.73v-17.010c0-1.063 0.38-1.973 1.14-2.73s1.673-1.136 2.74-1.136h7.759c0.21 0 0.376-0.052 0.497-0.157s0.202-0.262 0.242-0.471 0.065-0.399 0.073-0.568c0.008-0.169 0.004-0.383-0.012-0.64s-0.024-0.419-0.024-0.483c0-0.209-0.077-0.39-0.23-0.544s-0.335-0.229-0.546-0.229h-7.759c-1.923 0-3.568 0.681-4.935 2.042s-2.049 3-2.049 4.917v17.009c0 1.917 0.683 3.556 2.049 4.917s3.011 2.042 4.935 2.042h7.76c0.21 0 0.376-0.052 0.497-0.157s0.202-0.262 0.242-0.472c0.040-0.209 0.065-0.399 0.073-0.568s0.004-0.382-0.012-0.64c-0.016-0.258-0.024-0.419-0.024-0.483v0z"></path>
<path fill="#fff" d="M37.566 14.376l-13.191-13.144c-0.307-0.306-0.671-0.459-1.091-0.459s-0.784 0.153-1.091 0.459c-0.307 0.306-0.461 0.669-0.461 1.087v6.958h-10.863c-0.421 0-0.784 0.153-1.091 0.459s-0.461 0.669-0.461 1.087v9.278c0 0.419 0.154 0.781 0.461 1.087s0.671 0.459 1.091 0.459h10.863v6.958c0 0.418 0.154 0.781 0.461 1.087s0.671 0.459 1.091 0.459 0.784-0.153 1.091-0.459l13.191-13.144c0.307-0.306 0.461-0.668 0.461-1.087s-0.154-0.782-0.461-1.088v0z"></path>
</svg>
