<!-- Generated by IcoMoon.io -->
<svg version="1.1" xmlns="http://www.w3.org/2000/svg" width="114" height="32" viewBox="0 0 114 32">
<title>logo_outline</title>
<path fill="#fff" d="M49.779 22.281c-3.46 0-5.72-2.648-5.72-6.091s2.26-6.091 5.72-6.091c3.443 0 5.72 2.648 5.72 6.091 0 1.783-0.618 3.337-1.677 4.431l1.236 1.289-0.689 0.636-1.254-1.289c-0.9 0.653-2.030 1.024-3.337 1.024zM49.779 21.363c1.024 0 1.942-0.3 2.666-0.812l-1.818-1.889 0.706-0.653 1.818 1.907c0.812-0.936 1.289-2.225 1.289-3.725 0-2.984-1.836-5.173-4.661-5.173-2.842 0-4.661 2.189-4.661 5.173 0 2.966 1.818 5.173 4.661 5.173zM63.351 22.281c-3.019 0-4.59-1.836-4.59-4.732v-7.256h1.024v7.239c0 2.383 1.254 3.831 3.566 3.831s3.566-1.448 3.566-3.831v-7.239h1.024v7.256c0 2.913-1.554 4.732-4.59 4.732zM80.931 22.069h-1.165l-1.165-2.895h-6.232l-1.165 2.895h-1.165l4.82-11.776h1.254l4.82 11.776zM78.265 18.255l-2.772-6.886-2.79 6.886h5.561zM91.555 22.069h-1.218l-3.302-4.873h-2.595v4.873h-1.006v-11.776h4.396c2.030 0 3.584 1.289 3.584 3.443 0 2.136-1.501 3.319-3.266 3.39l3.407 4.943zM87.742 16.278c1.571 0 2.613-1.059 2.613-2.542s-1.042-2.525-2.613-2.525h-3.302v5.067h3.302zM98.542 22.069h-1.024v-10.858h-3.849v-0.918h8.722v0.918h-3.849v10.858zM113.156 22.069h-8.492v-0.883l7.097-9.975h-7.097v-0.918h8.369v0.865l-7.097 9.993h7.221v0.918z"></path>
<path fill="none" stroke="#fff" stroke-width="1.1034" stroke-miterlimit="4" stroke-linecap="butt" stroke-linejoin="miter" d="M2.759 0.552h26.483c1.219 0 2.207 0.988 2.207 2.207v26.483c0 1.219-0.988 2.207-2.207 2.207h-26.483c-1.219 0-2.207-0.988-2.207-2.207v-26.483c0-1.219 0.988-2.207 2.207-2.207z"></path>
<path fill="#fff" d="M16.693 23.384c-3.531 0-6.020-2.578-6.020-6.091s2.489-6.091 6.020-6.091c3.513 0 6.020 2.578 6.020 6.091 0 1.695-0.583 3.16-1.571 4.237l0.971 1.095-1.43 1.201-1.024-1.148c-0.865 0.459-1.871 0.706-2.966 0.706zM16.693 21.548c0.618 0 1.165-0.124 1.66-0.353l-1.465-1.66 1.448-1.201 1.465 1.66c0.512-0.724 0.794-1.66 0.794-2.701 0-2.436-1.536-4.255-3.902-4.255-2.383 0-3.902 1.818-3.902 4.255 0 2.419 1.518 4.255 3.902 4.255z"></path>
</svg>
