<!-- Generated by IcoMoon.io -->
<svg version="1.1" xmlns="http://www.w3.org/2000/svg" width="24" height="32" viewBox="0 0 24 32">
<title>medical</title>
<path fill="#006bd5" d="M21.024 2.628h-2.749c-0.272-0.763-0.995-1.314-1.85-1.314h-1.985c-0.617-0.819-1.587-1.314-2.614-1.314s-1.997 0.495-2.615 1.314h-1.984c-0.855 0-1.578 0.551-1.85 1.314h-2.749c-1.449 0-2.628 1.179-2.628 2.628v23.652c0 1.449 1.179 2.628 2.628 2.628h18.396c1.449 0 2.628-1.179 2.628-2.628v-23.652c0-1.449-1.179-2.628-2.628-2.628zM6.57 3.285c0-0.362 0.294-0.657 0.657-0.657h2.335c0.234 0 0.45-0.124 0.568-0.327 0.36-0.619 0.994-0.987 1.696-0.987s1.336 0.369 1.696 0.987c0.118 0.202 0.334 0.327 0.568 0.327h2.335c0.362 0 0.657 0.294 0.657 0.657v0.657c0 0.724-0.59 1.314-1.314 1.314h-7.884c-0.724 0-1.314-0.59-1.314-1.314v-0.657zM22.338 28.908c0 0.724-0.59 1.314-1.314 1.314h-18.396c-0.724 0-1.314-0.59-1.314-1.314v-23.652c0-0.724 0.59-1.314 1.314-1.314h2.628c0 1.449 1.179 2.628 2.628 2.628h7.884c1.449 0 2.628-1.179 2.628-2.628h2.628c0.724 0 1.314 0.59 1.314 1.314v23.652h-0z"></path>
<path fill="#006bd5" d="M17.739 26.28h-11.826c-0.363 0-0.657 0.294-0.657 0.657s0.294 0.657 0.657 0.657h11.826c0.363 0 0.657-0.294 0.657-0.657s-0.294-0.657-0.657-0.657z"></path>
<path fill="#006bd5" d="M17.739 22.338h-11.826c-0.363 0-0.657 0.294-0.657 0.657s0.294 0.657 0.657 0.657h11.826c0.363 0 0.657-0.294 0.657-0.657s-0.294-0.657-0.657-0.657z"></path>
<path fill="#006bd5" d="M17.739 15.768h-0.908l-1.132-2.265c-0.116-0.234-0.352-0.37-0.622-0.362-0.26 0.014-0.489 0.181-0.581 0.425l-1.23 3.281-1.46-5.837c-0.067-0.267-0.292-0.464-0.565-0.494-0.277-0.028-0.536 0.114-0.66 0.359l-2.446 4.893h-2.222c-0.363 0-0.657 0.294-0.657 0.657s0.294 0.657 0.657 0.657h2.628c0.249 0 0.476-0.14 0.588-0.363l1.834-3.667 1.54 6.161c0.069 0.279 0.312 0.481 0.6 0.497 0.012 0.001 0.025 0.001 0.037 0.001 0.273 0 0.518-0.169 0.615-0.426l1.442-3.846 0.64 1.281c0.112 0.223 0.339 0.363 0.588 0.363h1.314c0.363 0 0.657-0.294 0.657-0.657s-0.294-0.657-0.657-0.657z"></path>
</svg>
