<!-- Generated by IcoMoon.io -->
<svg version="1.1" xmlns="http://www.w3.org/2000/svg" width="32" height="32" viewBox="0 0 32 32">
<title>review</title>
<path fill="#006bd5" d="M31.72 30.368l-7.776-7.776c2.086-2.398 3.349-5.527 3.349-8.947 0-7.528-6.123-13.644-13.644-13.644-7.528 0-13.644 6.123-13.644 13.644s6.123 13.644 13.644 13.644c3.42 0 6.549-1.263 8.947-3.349l7.776 7.777c0.184 0.184 0.433 0.284 0.674 0.284s0.49-0.092 0.674-0.284c0.369-0.369 0.369-0.979 0-1.348zM1.912 13.644c0-6.471 5.265-11.729 11.729-11.729 6.471 0 11.729 5.265 11.729 11.729s-5.258 11.736-11.729 11.736c-6.464 0-11.729-5.265-11.729-11.736z"></path>
</svg>
