<!-- Generated by IcoMoon.io -->
<svg version="1.1" xmlns="http://www.w3.org/2000/svg" width="30" height="32" viewBox="0 0 30 32">
<title>ic_Settings</title>
<path fill="#fff" d="M13.253 11.988l-12.552 12.552c-0.467 0.467-0.7 1.026-0.7 1.677 0 0.664 0.233 1.216 0.7 1.659l1.954 1.991c0.479 0.455 1.038 0.682 1.677 0.682 0.651 0 1.204-0.227 1.659-0.682l12.57-12.571c-1.204-0.479-2.27-1.183-3.198-2.111s-1.631-1.994-2.11-3.198v0zM6.341 25.867c-0.234 0.233-0.51 0.35-0.83 0.35s-0.596-0.117-0.829-0.35c-0.233-0.233-0.35-0.51-0.35-0.829s0.117-0.596 0.35-0.83c0.233-0.233 0.51-0.35 0.829-0.35s0.596 0.117 0.83 0.35c0.233 0.234 0.35 0.51 0.35 0.83s-0.117 0.596-0.35 0.829zM30.091 8.817c0.104 0.123 0.157 0.277 0.156 0.461 0 0.479-0.141 1.13-0.424 1.954-0.578 1.647-1.588 2.983-3.032 4.009s-3.032 1.539-4.765 1.539c-2.273 0-4.218-0.808-5.834-2.424s-2.424-3.561-2.424-5.834c0-2.273 0.808-4.218 2.424-5.834s3.56-2.424 5.834-2.424c0.713 0 1.459 0.101 2.24 0.304s1.441 0.488 1.981 0.857c0.197 0.135 0.295 0.307 0.295 0.516s-0.098 0.381-0.295 0.516l-5.401 3.115v4.129l3.558 1.972c0.061-0.037 0.547-0.335 1.456-0.894s1.742-1.057 2.498-1.493 1.189-0.655 1.299-0.655c0.184 0 0.329 0.061 0.433 0.184z"></path>
</svg>
